<?xml version="1.0" encoding="utf-8"?>
<!-- Generator: Adobe Illustrator 19.0.0, SVG Export Plug-In . SVG Version: 6.00 Build 0)  -->
<svg version="1.1" id="图层_1" xmlns="http://www.w3.org/2000/svg" xmlns:xlink="http://www.w3.org/1999/xlink" x="0px" y="0px"
	 viewBox="-2025 326.4 200 200" style="enable-background:new -2025 326.4 200 200;" xml:space="preserve">
<style type="text/css">
	.st0{fill:#FD007D;}
</style>
<g>
	<g transform="scale(0.1953125, 0.1953125)">
		<path class="st0" d="M-9879,1697.2l-485.9,217.4l509,212.3l496.2-209.7L-9879,1697.2L-9879,1697.2L-9879,1697.2L-9879,1697.2
			L-9879,1697.2z M-10367.5,2444l480.8,225.1v-498.7l-480.8-196.9V2444L-10367.5,2444L-10367.5,2444L-10367.5,2444L-10367.5,2444z
			 M-10216.6,2139.6l191.8,89.5v69.1l-191.8-89.5V2139.6L-10216.6,2139.6L-10216.6,2139.6L-10216.6,2139.6L-10216.6,2139.6z
			 M-9825.3,2170.3V2669l480.8-237.8v-468L-9825.3,2170.3L-9825.3,2170.3L-9825.3,2170.3L-9825.3,2170.3L-9825.3,2170.3z"/>
	</g>
</g>
</svg>
